<?xml version="1.0" encoding="utf-8"?>
<!-- Generator: Adobe Illustrator 16.0.3, SVG Export Plug-In . SVG Version: 6.00 Build 0)  -->
<!DOCTYPE svg PUBLIC "-//W3C//DTD SVG 1.1//EN" "http://www.w3.org/Graphics/SVG/1.1/DTD/svg11.dtd">
<svg version="1.1" id="Layer_1" xmlns="http://www.w3.org/2000/svg" xmlns:xlink="http://www.w3.org/1999/xlink" x="0px" y="0px"
	 width="1080px" height="766.765px" viewBox="0 0 1080 766.765" enable-background="new 0 0 1080 766.765" xml:space="preserve">
<path opacity="0.25" fill="#39BCED" d="M60.416,272.543C78.62,173.991,96.827,75.439,133.24,75.439
	c36.414,0,54.621,98.547,72.828,197.1c18.206,98.552,36.415,155.934,72.831,155.934c36.413,0,54.618-57.382,72.824-155.933
	c18.208-98.55,46.274-115.285,72.829-115.285c26.554,0,54.613,16.734,72.818,115.281c18.205,98.555,36.41,143.915,72.82,143.915
	c36.414,0,54.621-45.355,72.828-143.908c18.21-98.552,36.417-167.594,72.825-167.594c36.414,0,54.624,69.042,72.828,167.592
	c18.204,98.551,36.414,170.14,72.831,170.14c36.414,0,54.621-71.584,72.83-170.137c18.21-98.552,36.414-145.734,72.834-145.734
	c36.414,0,54.624,47.178,72.834,145.73"/>
<path opacity="0.25" fill="#EC008C" d="M135.642,272.543c21.287-90.967,42.575-131.591,85.149-131.591
	c42.576,0,63.863,40.619,85.151,131.587c21.288,90.967,58.614,108.132,85.153,108.132c26.536,0,63.86-17.161,85.147-108.128
	c21.288-90.967,42.573-143.606,85.147-143.606c42.575,0,63.855,52.636,85.144,143.604c21.288,90.969,42.567,137.021,85.141,137.021
	c42.567,0,63.864-46.051,85.152-137.019c21.276-90.967,42.575-129.513,85.148-129.513c42.576,0,63.861,38.543,85.152,129.51"/>
<path opacity="0.25" fill="#54B948" d="M0,272.543c18.204-50.46,36.413-100.922,72.824-100.922
	c36.416,0,54.621,50.459,72.83,100.918c18.206,50.46,36.414,79.84,72.831,79.84c36.412,0,54.617-29.38,72.824-79.839
	c18.207-50.458,46.275-59.027,72.831-59.027c26.551,0,54.611,8.566,72.816,59.026C455.16,323,473.366,373.46,509.775,373.46
	c36.413,0,54.62-50.459,72.83-100.917c18.207-50.46,36.411-85.813,72.819-85.813c36.42,0,54.624,35.353,72.828,85.811
	c18.207,50.459,36.42,87.115,72.831,87.115c36.42,0,54.624-36.654,72.836-87.112c18.207-50.46,36.412-100.922,72.831-100.922
	c36.417,0,54.621,50.459,72.834,100.918"/>
<path fill="#EE2A7B" d="M840.612,290.222c2.324-7.311,3.486-15.118,3.818-22.761h18.441c0,14.787-3.487,29.075-10.966,41.867
	l14.952,24.92h-24.921l-4.483-8.307c-8.642,8.307-17.445,10.798-29.073,10.798c-19.107,0-33.229-16.28-33.229-37.546
	c0-18.44,9.304-29.073,23.594-39.207c-4.82-8.307-9.804-17.112-9.804-26.914c0-19.604,14.952-26.915,28.742-26.915
	c13.124,0,26.249,9.636,26.249,25.918c0,13.623-7.642,24.088-18.941,31.066L840.612,290.222z M808.545,276.764
	c-4.317,1.662-13.29,10.966-11.628,22.096c1.328,9.138,6.977,19.105,16.611,19.105c5.982,0,10.8-2.99,15.121-6.812L808.545,276.764z
	 M825.16,232.573c0-5.815-4.154-9.636-8.307-9.802c-4.152-0.167-7.974,2.326-7.974,8.14c0,5.815,4.318,11.795,6.646,16.779
	C820.174,244.036,825.16,239.053,825.16,232.573z"/>
<path fill="#414042" d="M202.744,65.96c1.207-26.546-8.443-39.015-35.393-39.015c-22.522,0-35.393,10.459-35.393,33.785
	c0,28.96,23.73,32.578,45.449,41.831c32.175,14.477,64.35,22.521,64.35,64.351c0,42.633-29.762,69.176-75.612,68.774
	c-19.709,0.402-43.839-6.433-55.504-23.325c-13.271-17.696-12.469-32.578-12.469-47.863h30.167
	c-1.206,27.351,8.045,44.242,37.807,44.242c25.741,0,42.632-10.458,42.632-37.807c0-31.772-32.175-34.589-55.1-44.242
	c-34.589-12.87-54.701-24.534-54.701-63.546C98.976,24.535,125.927,0,164.535,0c44.242,0,69.983,20.109,69.177,65.96H202.744z"/>
<path fill="#414042" d="M416.715,155.248c2.011,43.839-20.511,80.438-67.566,80.438c-42.232,0-72.399-28.152-72.399-118.245
	C276.75,70.383,289.221,0,348.343,0c72.395,0,68.372,68.372,69.982,120.659H309.733c0.805,30.164-4.425,88.081,40.219,88.081
	c30.568,0,39.012-28.155,37-53.492H416.715z M385.348,94.516c-1.209-26.144,0.4-67.57-36.603-67.57
	c-37.001,0-37.806,41.026-39.012,67.57H385.348z"/>
<path fill="#414042" d="M498.366,30.567h0.806C514.457,11.259,530.945,0,555.075,0c33.383,0,55.102,17.696,55.102,57.112v172.542
	h-31.773V65.96c0-23.328-7.642-39.015-33.38-39.015c-11.665,0-22.928,4.426-31.373,12.469
	c-12.869,11.665-14.479,24.535-14.479,40.623v149.616h-31.773V6.032h30.967V30.567z"/>
<path fill="#414042" d="M761.014,65.96c1.204-26.546-8.45-39.015-35.396-39.015c-22.524,0-35.393,10.459-35.393,33.785
	c0,28.96,23.729,32.578,45.45,41.831c32.174,14.477,64.347,22.521,64.347,64.351c0,42.633-29.76,69.176-75.61,68.774
	c-19.709,0.402-43.841-6.433-55.505-23.325c-13.271-17.696-12.467-32.578-12.467-47.863h30.163
	c-1.206,27.351,8.045,44.242,37.809,44.242c25.741,0,42.634-10.458,42.634-37.807c0-31.772-32.179-34.589-55.102-44.242
	c-34.592-12.87-54.701-24.534-54.701-63.546c0-38.61,26.95-63.145,65.56-63.145c44.243,0,69.984,20.109,69.179,65.96H761.014z"/>
<path fill="#414042" d="M974.985,155.248c2.01,43.839-20.513,80.438-67.569,80.438c-42.23,0-72.395-28.152-72.395-118.245
	C835.021,70.383,847.489,0,906.613,0c72.395,0,68.372,68.372,69.979,120.659H867.999c0.809,30.164-4.423,88.081,40.224,88.081
	c30.563,0,39.009-28.155,36.999-53.492H974.985z M943.615,94.516c-1.209-26.144,0.402-67.57-36.602-67.57
	c-37.003,0-37.806,41.026-39.015,67.57H943.615z"/>
<path fill="#414042" d="M202.744,389.484c1.207-26.545-8.443-39.015-35.393-39.015c-22.522,0-35.393,10.459-35.393,33.785
	c0,28.959,23.73,32.578,45.449,41.829c32.175,14.48,64.35,22.522,64.35,64.353c0,42.634-29.762,69.176-75.612,68.775
	c-19.709,0.4-43.839-6.436-55.504-23.325c-13.271-17.699-12.469-32.58-12.469-47.863h30.167
	c-1.206,27.351,8.045,44.241,37.807,44.241c25.741,0,42.632-10.458,42.632-37.806c0-31.773-32.175-34.589-55.1-44.243
	c-34.589-12.871-54.701-24.535-54.701-63.547c0-38.61,26.951-63.145,65.559-63.145c44.242,0,69.983,20.109,69.177,65.961H202.744z"
	/>
<path fill="#414042" d="M416.715,478.771c2.011,43.841-20.511,80.439-67.566,80.439c-42.232,0-72.399-28.154-72.399-118.245
	c0-47.06,12.47-117.442,71.593-117.442c72.395,0,68.372,68.373,69.982,120.659H309.733c0.805,30.163-4.425,88.081,40.219,88.081
	c30.568,0,39.012-28.154,37-53.492H416.715z M385.348,418.041c-1.209-26.145,0.4-67.572-36.603-67.572
	c-37.001,0-37.806,41.027-39.012,67.572H385.348z"/>
<path fill="#414042" d="M498.366,354.089h0.806c15.285-19.306,31.773-30.566,55.903-30.566c33.383,0,55.102,17.697,55.102,57.112
	v172.543h-31.773V389.484c0-23.329-7.642-39.015-33.38-39.015c-11.665,0-22.928,4.426-31.373,12.47
	c-12.869,11.663-14.479,24.535-14.479,40.621v359.47h-31.773V329.555h30.967V354.089z"/>
<path fill="#414042" d="M761.014,389.484c1.204-26.545-8.45-39.015-35.396-39.015c-22.524,0-35.393,10.459-35.393,33.785
	c0,28.959,23.729,32.578,45.45,41.829c32.174,14.48,64.347,22.522,64.347,64.353c0,42.634-29.76,69.176-75.61,68.775
	c-19.709,0.4-43.841-6.436-55.505-23.325c-13.271-17.699-12.467-32.58-12.467-47.863h30.163
	c-1.206,27.351,8.045,44.241,37.809,44.241c25.741,0,42.634-10.458,42.634-37.806c0-31.773-32.179-34.589-55.102-44.243
	c-34.592-12.871-54.701-24.535-54.701-63.547c0-38.61,26.95-63.145,65.56-63.145c44.243,0,69.984,20.109,69.179,65.961H761.014z"/>
<path fill="#414042" d="M974.985,478.771c2.01,43.841-20.513,80.439-67.569,80.439c-42.23,0-72.395-28.154-72.395-118.245
	c0-47.06,12.468-117.442,71.592-117.442c72.395,0,68.372,68.373,69.979,120.659H867.999c0.809,30.163-4.423,88.081,40.224,88.081
	c30.563,0,39.009-28.154,36.999-53.492H974.985z M943.615,418.041c-1.209-26.145,0.402-67.572-36.602-67.572
	c-37.003,0-37.806,41.027-39.015,67.572H943.615z"/>
<path fill="#414042" d="M163.56,682.485c5.866-0.535,15.735-2.134,21.07-4.533c5.332-2.401,5.867-9.604,5.867-14.405
	c0-16.269-9.601-28.002-34.406-28.002c-22.136,0-37.339,7.2-40.272,31.205H99.549c2.399-32.538,26.668-45.607,56.808-45.607
	c28.004,0,50.143,10.935,50.143,42.94v75.213c0,12.534,3.2,15.469,16.802,10.668v12.533c-2.402,0.801-8.003,2.667-12.534,2.667
	c-2.67,0-4.802-0.265-7.204-0.798c-10.666-1.602-12.535-10.938-12.802-20.54c-13.335,14.938-31.471,22.939-51.475,22.939
	c-24.27,0-46.14-13.069-46.14-39.741c0-23.201,16.002-37.339,48.274-41.604L163.56,682.485z M190.496,690.486
	c-13.601,5.602-27.471,6.667-41.339,7.732c-24.27,1.869-38.94,10.671-38.94,29.339c0,16.805,14.67,24.805,29.871,24.805
	c25.336,0,50.408-12.269,50.408-40.273V690.486z"/>
<path fill="#414042" d="M266.229,763.03h-16.002V571.001h16.002v76.011c10.136-16.804,29.871-25.87,49.343-25.87
	c42.14,0,61.608,34.404,61.608,73.076c0,40.81-17.868,72.547-62.409,72.547c-17.604,0-38.674-9.87-48.009-28.005h-0.533V763.03z
	 M312.904,752.362c26.938,0,46.942-19.472,47.207-54.144c1.336-34.672-14.135-62.674-47.207-62.674
	c-29.072,0-46.674,26.672-46.674,57.876C266.229,726.756,282.765,752.362,312.904,752.362z"/>
<path fill="#414042" d="M412.907,594.736v-23.734h17.602v23.734H412.907z M413.705,763.03V624.875h16.002V763.03H413.705z"/>
<path fill="#414042" d="M531.308,594.736v-23.734h17.603v23.734H531.308z M532.107,763.03V624.875h16V763.03H532.107z"/>
<path fill="#414042" d="M637.447,763.565c-3.735,0.801-10.67,3.2-18.403,3.2c-15.735,0-24.534-6.936-24.534-27.47V638.208h-19.475
	v-13.334h19.475V586.47h16.001v38.404h25.868v13.334H610.51v94.682c0,13.605,0.533,19.472,13.87,19.472
	c4.268,0,8.804-0.801,13.066-1.866V763.565z"/>
<path fill="#414042" d="M664.648,594.736v-23.734h17.6v23.734H664.648z M665.446,763.03V624.875h16.002V763.03H665.446z"/>
<path fill="#414042" d="M732.115,697.686c-0.265,29.871,15.736,54.676,46.408,54.676c20.802,0,37.071-11.471,41.872-31.737h17.87
	c-8.001,26.136-24.535,46.141-59.742,46.141c-44.273,0-63.478-31.473-63.478-72.279c0-40.271,24.002-73.344,63.478-73.344
	c37.871,0,61.075,26.938,60.811,76.544H732.115z M822.264,684.351c0-26.937-14.938-48.807-43.741-48.807
	c-28.272,0-43.205,22.668-46.408,48.807H822.264z"/>
<path fill="#414042" d="M879.861,719.824c5.066,23.737,17.338,32.538,41.339,32.538c23.204,0,34.14-12.269,34.14-25.605
	c0-40.003-88.548-11.733-88.548-66.142c0-22.938,17.87-39.473,48.545-39.473c29.865,0,49.334,12.269,53.337,43.473h-16.266
	c-2.935-21.338-17.341-29.07-37.342-29.07c-20.272,0-31.205,9.602-31.205,23.737c0,37.606,88.548,14.135,88.548,67.212
	c0,26.401-23.739,40.271-56.277,40.271s-51.206-20.806-52.539-46.941H879.861z"/>
</svg>
